<?xml version="1.0" encoding="UTF-8"?>
<svg version="1.1" xmlns="http://www.w3.org/2000/svg" width="500" height="305">
<path d="M0 0 C0.98178223 -0.00218285 0.98178223 -0.00218285 1.98339844 -0.00440979 C3.36527972 -0.00275204 4.7471797 0.00879582 6.12890625 0.02954102 C8.24298592 0.05849768 10.35455736 0.05015083 12.46875 0.03710938 C13.81251218 0.04334718 15.15626644 0.05173847 16.5 0.0625 C17.72203125 0.07224854 18.9440625 0.08199707 20.203125 0.09204102 C23.25 0.49609375 23.25 0.49609375 25.171875 1.71069336 C26.59453419 4.06665048 26.46907377 5.7941839 26.25 8.49609375 C26.88164062 8.53049561 27.51328125 8.56489746 28.1640625 8.6003418 C53.6568164 10.08114387 86.81236147 12.51049332 106.25 31.49609375 C109.99797035 36.24819323 110.87859316 40.46778225 110.25 46.49609375 C109.9293216 49.16457329 109.59192493 51.83019122 109.25 54.49609375 C129.54006662 53.22134675 129.54006662 53.22134675 146.30859375 43.1796875 C151.96425424 38.27508052 157.96966426 37.99923576 165.125 38.05859375 C166.39537109 38.02862305 166.39537109 38.02862305 167.69140625 37.99804688 C175.23150121 38.0038203 181.27000253 39.97965144 187.0625 44.87109375 C193.91346472 53.09225142 194.79082439 59.01919329 194.25 69.49609375 C193.78372711 71.99774918 193.13975734 74.1048709 192.25 76.49609375 C197.68375414 81.60832397 201.9373606 84.56705059 209.625 84.62109375 C210.82125 84.57984375 212.0175 84.53859375 213.25 84.49609375 C213.58 82.84609375 213.91 81.19609375 214.25 79.49609375 C215.24 79.49609375 216.23 79.49609375 217.25 79.49609375 C217.58 80.81609375 217.91 82.13609375 218.25 83.49609375 C221.88 83.16609375 225.51 82.83609375 229.25 82.49609375 C229.5903125 80.02109375 229.5903125 80.02109375 229.9375 77.49609375 C231.10218596 71.0023411 233.58986131 66.15623244 238.25 61.49609375 C242.09044909 61.06937718 244.34550797 60.86050476 247.5625 63.12109375 C251.68203493 68.91895772 251.41723896 74.78484751 250.99609375 81.57421875 C250.82563745 86.82828342 252.15467597 89.35330265 255.25 93.49609375 C256.1441275 96.24757907 256.36949008 98.72340384 256.34765625 101.60546875 C256.34443359 102.35957031 256.34121094 103.11367187 256.33789062 103.890625 C256.32951172 104.66792969 256.32113281 105.44523437 256.3125 106.24609375 C256.30798828 107.03886719 256.30347656 107.83164063 256.29882812 108.6484375 C256.28708565 110.59768883 256.26915146 112.54690113 256.25 114.49609375 C257.219375 114.78484375 258.18875 115.07359375 259.1875 115.37109375 C262.25 116.49609375 262.25 116.49609375 263.25 118.49609375 C264.10436 124.47661378 262.38659632 127.49155365 259.0390625 132.1796875 C257.85348825 133.71472141 256.63985963 135.22851964 255.3984375 136.71875 C250.98092786 142.04795843 248.73477829 146.72267662 247.25 153.49609375 C248.425625 153.43421875 249.60125 153.37234375 250.8125 153.30859375 C255.32443531 153.30057966 258.26150648 154.42207712 262.25 156.49609375 C264.25 158.49609375 264.25 158.49609375 264.75 160.99609375 C263.38936688 170.52052558 255.98476521 177.22314101 249.25 183.49609375 C248.24557529 184.49164937 247.24367108 185.48980463 246.25 186.49609375 C246.78367187 186.35171875 247.31734375 186.20734375 247.8671875 186.05859375 C253.5316832 184.64736991 259.42397275 183.51807835 265.25 184.49609375 C267.63327217 186.33795443 268.17158842 187.13017304 268.8125 190.12109375 C267.26856755 199.38468845 259.32747365 205.9926361 252.25 211.49609375 C250.16245452 212.79405452 248.04997242 214.05279911 245.9140625 215.26953125 C244.84881348 215.87974121 243.78356445 216.48995117 242.68603516 217.11865234 C241.48019775 217.80048584 241.48019775 217.80048584 240.25 218.49609375 C241.26835937 218.57649902 242.28671875 218.6569043 243.3359375 218.73974609 C247.14591112 219.0423677 250.95511592 219.35388304 254.76416016 219.66796875 C256.4068699 219.80219921 258.04977367 219.93407812 259.69287109 220.06347656 C262.06664144 220.25084156 264.43956481 220.44690111 266.8125 220.64453125 C267.53679199 220.69983002 268.26108398 220.75512878 269.00732422 220.81210327 C273.9307605 221.23341401 278.480982 222.1958792 283.25 223.49609375 C283.25 224.48609375 283.25 225.47609375 283.25 226.49609375 C276.09127318 228.61884277 269.05746005 229.10795012 261.625 229.55859375 C259.67968384 229.6831897 259.67968384 229.6831897 257.69506836 229.81030273 C253.88059727 230.04966333 250.06563787 230.27619019 246.25 230.49609375 C245.29786621 230.55152344 244.34573242 230.60695313 243.36474609 230.6640625 C210.41640904 232.51572526 177.35297556 232.68649705 144.36279297 233.02832031 C140.5200918 233.06895607 136.67743076 233.11286653 132.83476543 233.1567421 C99.52827085 233.53584959 66.24359099 233.50378367 32.9375 233.12109375 C32.02362644 233.11063396 31.10975288 233.10017418 30.16818619 233.08939743 C0.69158411 232.74915033 -28.78119699 232.27126562 -58.25259018 231.61956024 C-61.05234989 231.55881398 -63.85215979 231.50138985 -66.65200806 231.44488525 C-71.05121039 231.35555718 -75.45010702 231.25691176 -79.84893799 231.15089607 C-81.45742149 231.11340652 -83.06597624 231.07883603 -84.67459106 231.04748344 C-105.2660282 230.63947659 -105.2660282 230.63947659 -112.1875 226.12109375 C-112.82558594 225.72148437 -113.46367188 225.321875 -114.12109375 224.91015625 C-116.72313996 222.65130559 -117.58078707 220.48533856 -118.15625 217.12109375 C-118.46488979 208.47917965 -115.71497429 201.16843435 -110.0859375 194.53515625 C-109.56257813 193.98601562 -109.03921875 193.436875 -108.5 192.87109375 C-104.82721012 188.96815516 -104.46527472 184.6409011 -103.75 179.49609375 C-103.52957031 178.77808594 -103.30914062 178.06007812 -103.08203125 177.3203125 C-102.97246094 176.71832031 -102.86289063 176.11632812 -102.75 175.49609375 C-103.74 174.50609375 -103.74 174.50609375 -104.75 173.49609375 C-104.5 169.93359375 -104.5 169.93359375 -103.75 166.49609375 C-103.09 166.16609375 -102.43 165.83609375 -101.75 165.49609375 C-107.78859593 162.38043521 -113.81791135 159.40815573 -120.125 156.87109375 C-132.03979399 151.99332933 -142.03298358 142.13249886 -147.75 130.49609375 C-147.75 129.50609375 -147.75 128.51609375 -147.75 127.49609375 C-128.90310974 126.71080666 -113.69613176 128.90894133 -98.875 141.49609375 C-95.53052525 144.5741944 -93.0117786 147.56256575 -90.75 151.49609375 C-90.06760646 149.50140493 -89.40629516 147.49952109 -88.75 145.49609375 C-88.47414062 144.67625 -88.19828125 143.85640625 -87.9140625 143.01171875 C-87.49253906 141.70460937 -87.49253906 141.70460937 -87.0625 140.37109375 C-86.79050781 139.54351562 -86.51851562 138.7159375 -86.23828125 137.86328125 C-85.43009341 133.94518662 -86.89508506 131.11152897 -88.3125 127.49609375 C-90.42143322 121.08493677 -91.2984741 114.33208641 -88.71875 107.94140625 C-82.86198773 98.2777485 -73.21092541 94.74042745 -63.28759766 90.46118164 C-55.26258844 86.94971469 -49.08632283 83.30147484 -44.75 75.49609375 C-44.255 74.01109375 -44.255 74.01109375 -43.75 72.49609375 C-47.16656024 72.32932093 -47.16656024 72.32932093 -50.75 72.49609375 C-51.41 73.15609375 -52.07 73.81609375 -52.75 74.49609375 C-55.75 74.74609375 -55.75 74.74609375 -58.75 74.49609375 C-59.41 73.83609375 -60.07 73.17609375 -60.75 72.49609375 C-63.07612666 71.85173728 -63.07612666 71.85173728 -65.6875 71.43359375 C-68.50113142 70.93219551 -71.03110509 70.40239205 -73.75 69.49609375 C-75.235 69.99109375 -75.235 69.99109375 -76.75 70.49609375 C-79.48865287 70.56660489 -82.20027588 70.5896714 -84.9375 70.55859375 C-85.68708984 70.55408203 -86.43667969 70.54957031 -87.20898438 70.54492188 C-89.05602383 70.53315729 -90.90302213 70.5152224 -92.75 70.49609375 C-93.44755617 61.56349944 -91.59100463 54.26492295 -87 46.55859375 C-78.20990529 38.50100693 -67.05322859 38.20277534 -55.75 38.37109375 C-54.01556641 38.38462891 -54.01556641 38.38462891 -52.24609375 38.3984375 C-49.41384353 38.42184453 -46.58203381 38.4546338 -43.75 38.49609375 C-43.63527344 37.26632813 -43.52054687 36.0365625 -43.40234375 34.76953125 C-42.97468723 31.35880141 -42.28752768 28.99279572 -40.3125 26.12109375 C-39.88066406 25.47398438 -39.44882813 24.826875 -39.00390625 24.16015625 C-37.75 22.49609375 -37.75 22.49609375 -35.75 20.49609375 C-35.3478125 19.22765625 -35.3478125 19.22765625 -34.9375 17.93359375 C-34.545625 17.12921875 -34.15375 16.32484375 -33.75 15.49609375 C-31.4375 14.74609375 -31.4375 14.74609375 -28.75 14.49609375 C-24.41715568 13.72597026 -20.33462204 12.46402288 -16.15234375 11.1171875 C-13.75 10.49609375 -13.75 10.49609375 -9.75 10.49609375 C-9.811875 9.58859375 -9.87375 8.68109375 -9.9375 7.74609375 C-9.54223481 0.89483044 -6.3779302 -0.00967118 0 0 Z " fill="#97A2D5" transform="translate(175.75,40.50390625)"/>
<path d="M0 0 C3.625 0.375 3.625 0.375 5.9375 2 C10.05703493 7.79786397 9.79223896 13.66375376 9.37109375 20.453125 C9.20063745 25.70718967 10.52967597 28.2322089 13.625 32.375 C14.5191275 35.12648532 14.74449008 37.60231009 14.72265625 40.484375 C14.71782227 41.61552734 14.71782227 41.61552734 14.71289062 42.76953125 C14.70032227 43.93548828 14.70032227 43.93548828 14.6875 45.125 C14.68298828 45.91777344 14.67847656 46.71054688 14.67382812 47.52734375 C14.66208565 49.47659508 14.64415146 51.42580738 14.625 53.375 C15.594375 53.66375 16.56375 53.9525 17.5625 54.25 C20.625 55.375 20.625 55.375 21.625 57.375 C22.47936 63.35552003 20.76159632 66.3704599 17.4140625 71.05859375 C16.22848825 72.59362766 15.01485963 74.10742589 13.7734375 75.59765625 C9.35592786 80.92686468 7.10977829 85.60158287 5.625 92.375 C6.800625 92.313125 7.97625 92.25125 9.1875 92.1875 C13.69943531 92.17948591 16.63650648 93.30098337 20.625 95.375 C22.625 97.375 22.625 97.375 23.125 99.875 C21.76436688 109.39943183 14.35976521 116.10204726 7.625 122.375 C6.62057529 123.37055562 5.61867108 124.36871088 4.625 125.375 C5.15867187 125.230625 5.69234375 125.08625 6.2421875 124.9375 C11.9066832 123.52627616 17.79897275 122.3969846 23.625 123.375 C26.00827217 125.21686068 26.54658842 126.00907929 27.1875 129 C25.65061964 138.22128213 17.73109939 144.95623764 10.625 150.375 C3.30522798 155.31516752 -4.2147063 158.93653447 -12.5 161.9375 C-13.2226001 162.20135498 -13.9452002 162.46520996 -14.68969727 162.73706055 C-21.12949419 164.93028615 -21.12949419 164.93028615 -24.375 163.375 C-36.46912301 155.44588805 -47.39965314 143.98508652 -54.375 131.375 C-55.3340625 129.8590625 -55.3340625 129.8590625 -56.3125 128.3125 C-57.85389429 124.05099813 -57.8146897 119.8649083 -57.375 115.375 C-56.375 114.375 -56.375 114.375 -54.625 114.3203125 C-49.02788749 114.76730412 -45.17070263 116.24071639 -40.41796875 119.21875 C-38.39036474 120.36630409 -36.64944958 120.92522121 -34.375 121.375 C-34.91125 120.3025 -35.4475 119.23 -36 118.125 C-36.35964844 117.40441406 -36.71929687 116.68382812 -37.08984375 115.94140625 C-38.03631038 114.05134979 -38.98753644 112.16367482 -39.94140625 110.27734375 C-40.74384766 108.68599609 -40.74384766 108.68599609 -41.5625 107.0625 C-42.07167969 106.05574219 -42.58085937 105.04898438 -43.10546875 104.01171875 C-44.81272741 100.46587383 -45.53037727 97.7121992 -45.5625 93.8125 C-45.57667969 93.02746094 -45.59085937 92.24242187 -45.60546875 91.43359375 C-45.375 89.375 -45.375 89.375 -43.375 87.375 C-36.99267551 86.57199512 -31.95172824 87.0555189 -26.375 90.375 C-24.71654825 90.74705736 -23.05000861 91.08649517 -21.375 91.375 C-24.00039129 83.63191049 -26.84434014 76.05242046 -30.125 68.5625 C-30.43058838 67.86318359 -30.73617676 67.16386719 -31.05102539 66.44335938 C-32.34685364 63.17696375 -32.34685364 63.17696375 -34.375 60.375 C-34.83595527 53.34543215 -34.83595527 53.34543215 -33.1875 49.875 C-31.375 48.375 -31.375 48.375 -29.125 47.8125 C-25.68013807 48.51713085 -23.83882392 50.09870041 -21.21875 52.37890625 C-18.66604171 53.75801772 -17.12422688 53.02318484 -14.375 52.375 C-14.31965088 51.64385986 -14.26430176 50.91271973 -14.20727539 50.15942383 C-13.95383794 46.83520002 -13.6957169 43.51135583 -13.4375 40.1875 C-13.35048828 39.03701172 -13.26347656 37.88652344 -13.17382812 36.70117188 C-13.08681641 35.58935547 -12.99980469 34.47753906 -12.91015625 33.33203125 C-12.831604 32.31085205 -12.75305176 31.28967285 -12.67211914 30.23754883 C-12.39457735 27.56361501 -11.9504276 24.99920277 -11.375 22.375 C-17.17660774 23.86201402 -21.95263179 25.10004406 -26.375 29.375 C-27.75062854 28.08534824 -29.08266393 26.74810707 -30.375 25.375 C-30.375 24.715 -30.375 24.055 -30.375 23.375 C-29.715 23.375 -29.055 23.375 -28.375 23.375 C-28.045 21.725 -27.715 20.075 -27.375 18.375 C-26.385 18.375 -25.395 18.375 -24.375 18.375 C-23.88 20.355 -23.88 20.355 -23.375 22.375 C-19.745 22.045 -16.115 21.715 -12.375 21.375 C-12.148125 19.725 -11.92125 18.075 -11.6875 16.375 C-10.50078504 9.75842377 -7.51097518 0.8345528 0 0 Z " fill="#B8BFDC" transform="translate(417.375,101.625)"/>
<path d="M0 0 C-4.45081207 22.99586235 -17.23569218 41.27024492 -35.87890625 54.921875 C-39.75811097 57.76862988 -43.38439458 60.82624912 -47 64 C-46.41766602 63.76925781 -45.83533203 63.53851563 -45.23535156 63.30078125 C-31.30804548 58.01600985 -16.39571118 60.51117039 -3 66 C0.12052442 67.50533773 3.09895841 69.10626452 6 71 C6 71.99 6 72.98 6 74 C-11.97874185 83.45567835 -25.01389219 85.58697556 -45 81 C-45.33 80.01 -45.66 79.02 -46 78 C-47.65 77.67 -49.3 77.34 -51 77 C-50 75 -50 75 -47.69140625 74.1484375 C-38.01922261 71.75756065 -28.90759634 71.72307961 -19 72 C-18.01 72 -17.02 72 -16 72 C-25.8883581 68.80688436 -39.48824204 70.41093605 -49 74 C-49.82371094 74.5259375 -50.64742188 75.051875 -51.49609375 75.59375 C-54.37649749 77.21144945 -56.04491179 77.31820353 -59.3125 77.1875 C-60.63701172 77.14689453 -60.63701172 77.14689453 -61.98828125 77.10546875 C-62.65214844 77.07066406 -63.31601563 77.03585938 -64 77 C-61.68482306 58.02126559 -45.56888642 41.90264105 -32.4453125 29.38183594 C-31.28214953 28.26975782 -30.13790725 27.13790725 -29 26 C-29.55429688 26.5053125 -30.10859375 27.010625 -30.6796875 27.53125 C-31.76636719 28.50578125 -31.76636719 28.50578125 -32.875 29.5 C-33.95394531 30.47453125 -33.95394531 30.47453125 -35.0546875 31.46875 C-37 33 -37 33 -39 33 C-39.33 33.99 -39.66 34.98 -40 36 C-41.13608282 37.13608282 -42.27495663 38.26947781 -43.42578125 39.390625 C-53.62385266 49.8164449 -61.26862787 63.23600836 -66 77 C-67.65 77 -69.3 77 -71 77 C-71.34998047 76.07380859 -71.34998047 76.07380859 -71.70703125 75.12890625 C-76.8075488 63.2877754 -87.3225503 56.68436378 -99 52 C-100.65637573 51.61880668 -102.32167365 51.26853222 -104 51 C-103.24976562 51.27972656 -102.49953125 51.55945313 -101.7265625 51.84765625 C-89.89392092 56.48235591 -79.57842086 62.79232001 -73 74 C-73 74.99 -73 75.98 -73 77 C-78.10430529 76.40463002 -82.19553684 74.79935146 -86.8125 72.6875 C-87.87090088 72.21219849 -87.87090088 72.21219849 -88.95068359 71.72729492 C-90.34371277 71.10156889 -91.73568082 70.47347397 -93.12646484 69.84277344 C-95.44541613 68.7996382 -97.78562923 67.80882486 -100.125 66.8125 C-111.1298307 61.8749714 -120.66526394 51.85831233 -126 41 C-126 40.01 -126 39.02 -126 38 C-107.15310974 37.21471291 -91.94613176 39.41284758 -77.125 52 C-73.78052525 55.07810065 -71.2617786 58.066472 -69 62 C-68.02608286 59.11635838 -67.06959564 56.23669408 -66.2109375 53.31640625 C-60.74834763 35.32049103 -50.78955116 20.07872694 -34.29296875 10.4140625 C-23.86837582 4.91568283 -11.93227785 0 0 0 Z " fill="#327238" transform="translate(154,130)"/>
<path d="M0 0 C4.99268902 1.47931526 4.99268902 1.47931526 6.375 4 C6.75060691 10.07713774 5.8345855 14.82045284 3.890625 20.55078125 C3.63375916 21.33140427 3.37689331 22.11202728 3.11224365 22.91630554 C2.57002956 24.55271144 2.02178201 26.1871295 1.46777344 27.81958008 C0.62342638 30.31715475 -0.19317113 32.82267866 -1.0078125 35.33007812 C-1.540026 36.92502757 -2.07382532 38.51944892 -2.609375 40.11328125 C-2.97213531 41.23359489 -2.97213531 41.23359489 -3.34222412 42.37654114 C-4.72587557 46.38251581 -5.78279515 49.00654909 -9.625 51 C-10.95309379 51.35363225 -12.28603878 51.69004557 -13.625 52 C-12.83795181 51.99777939 -12.05090363 51.99555878 -11.24000549 51.99327087 C-3.8380967 51.97326887 3.56379908 51.95802634 10.96572781 51.94818783 C14.77151577 51.9429598 18.57728148 51.93586362 22.38305664 51.92456055 C26.05292544 51.9137288 29.72277278 51.90772256 33.39265633 51.90512276 C34.79574992 51.90326903 36.19884229 51.8996494 37.6019268 51.89426994 C39.5606968 51.88705581 41.5194882 51.88659191 43.47827148 51.88647461 C44.59523911 51.884254 45.71220673 51.88203339 46.86302185 51.87974548 C49.375 52 49.375 52 50.375 53 C50.5078125 54.8125 50.5078125 54.8125 50.5 57 C50.50257813 57.721875 50.50515625 58.44375 50.5078125 59.1875 C50.375 61 50.375 61 49.375 62 C47.52212498 62.07226502 45.66666122 62.0838122 43.8125 62.0625 C42.80058594 62.05347656 41.78867187 62.04445312 40.74609375 62.03515625 C39.96363281 62.02355469 39.18117188 62.01195312 38.375 62 C38.375 63.32 38.375 64.64 38.375 66 C-13.105 66 -64.585 66 -117.625 66 C-117.625 64.68 -117.625 63.36 -117.625 62 C-118.594375 62.020625 -119.56375 62.04125 -120.5625 62.0625 C-123.625 62 -123.625 62 -124.625 61 C-124.7578125 59.1875 -124.7578125 59.1875 -124.75 57 C-124.75257813 56.278125 -124.75515625 55.55625 -124.7578125 54.8125 C-124.625 53 -124.625 53 -123.625 52 C-121.56943339 51.90586313 -119.51059819 51.88257002 -117.45288086 51.88647461 C-116.48705833 51.88625557 -116.48705833 51.88625557 -115.50172424 51.8860321 C-113.36439697 51.88673115 -111.22715587 51.89452309 -109.08984375 51.90234375 C-107.61153715 51.90420796 -106.13322993 51.90563185 -104.65492249 51.90663147 C-100.75701198 51.91045641 -96.85913851 51.92028648 -92.96124268 51.93133545 C-88.98653667 51.94155008 -85.01182471 51.9461292 -81.03710938 51.95117188 C-73.233056 51.96190878 -65.42903318 51.97898491 -57.625 52 C-59.29454819 48.77595022 -59.29454819 48.77595022 -62.25 48.3125 C-63.425625 48.1578125 -63.425625 48.1578125 -64.625 48 C-64.625 46.68 -64.625 45.36 -64.625 44 C-55.715 44 -46.805 44 -37.625 44 C-39.00912968 37.86321003 -39.00912968 37.86321003 -40.43798828 31.73681641 C-41.77456571 25.45271561 -41.65979056 20.13565426 -39.625 14 C-38.965 13.01 -38.305 12.02 -37.625 11 C-37.49222656 12.16917969 -37.35945313 13.33835937 -37.22265625 14.54296875 C-37.04437987 16.09115839 -36.86598839 17.63933478 -36.6875 19.1875 C-36.60048828 19.95642578 -36.51347656 20.72535156 -36.42382812 21.51757812 C-36.07045893 24.56702341 -35.7245117 27.5518542 -35.05859375 30.55078125 C-34.45089203 33.98347478 -34.625 37.51392969 -34.625 41 C-29.015 40.34 -23.405 39.68 -17.625 39 C-17.03332031 36.60363281 -16.44164062 34.20726562 -15.83203125 31.73828125 C-15.24369269 29.40719226 -14.6493638 27.07770777 -14.05444336 24.74829102 C-13.645815 23.13496093 -13.24338255 21.52004783 -12.84741211 19.90356445 C-12.27539257 17.57314107 -11.68094312 15.24941907 -11.08203125 12.92578125 C-10.91097366 12.20787918 -10.73991608 11.48997711 -10.56367493 10.75032043 C-8.98131444 4.76328233 -6.65368444 0 0 0 Z " fill="#B8BFDB" transform="translate(279.625,111)"/>
<path d="M0 0 C0.99 0.495 0.99 0.495 2 1 C0.71416016 2.17755859 0.71416016 2.17755859 -0.59765625 3.37890625 C-3.54927605 6.08707569 -6.48988303 8.80683873 -9.42333984 11.53466797 C-10.67112557 12.69434742 -11.92276936 13.84987555 -13.17578125 15.00390625 C-23.84138513 25.17913754 -31.57976625 39.05292704 -36 53 C-34.4365085 52.91195873 -32.87414611 52.80376854 -31.3125 52.6875 C-30.44238281 52.62949219 -29.57226562 52.57148438 -28.67578125 52.51171875 C-25.57464011 51.9186538 -23.66295114 50.66694907 -21 49 C-9.18335441 44.54123466 5.35974653 43.92061667 17 49 C13.85896993 50.00961681 12.14345422 49.8078681 9 49 C-1.79806322 48.43340132 -11.57942325 48.90696662 -22 52 C-20.35 52.66 -18.7 53.32 -17 54 C-17 54.99 -17 55.98 -17 57 C-15.35 57 -13.7 57 -12 57 C-12 57.33 -12 57.66 -12 58 C-13.65 58 -15.3 58 -17 58 C-17.66 59.32 -18.32 60.64 -19 62 C-20.32 62 -21.64 62 -23 62 C-22.81037966 67.72276465 -22.81037966 67.72276465 -19.9375 72.4375 C-18.968125 73.283125 -17.99875 74.12875 -17 75 C-9.48296982 82.59295978 -3.34037095 90.63320683 -2.8203125 101.67578125 C-3.12430357 105.60783961 -4.09154123 108.2801196 -7 111 C-10.21872313 112.75516697 -13.50885159 113.90707372 -17 115 C-18.38215698 115.51228149 -18.38215698 115.51228149 -19.79223633 116.03491211 C-23.02958449 117.00890079 -25.58951916 117.25803257 -28.95703125 117.265625 C-30.07013672 117.26820313 -31.18324219 117.27078125 -32.33007812 117.2734375 C-33.47927734 117.26570313 -34.62847656 117.25796875 -35.8125 117.25 C-36.95009766 117.25773437 -38.08769531 117.26546875 -39.25976562 117.2734375 C-47.28375255 117.25491705 -55.50361034 117.1514893 -62.4375 112.625 C-63.07558594 112.22539062 -63.71367188 111.82578125 -64.37109375 111.4140625 C-66.97313996 109.15521184 -67.83078707 106.98924481 -68.40625 103.625 C-68.71488979 94.9830859 -65.96497429 87.6723406 -60.3359375 81.0390625 C-59.81257813 80.48992187 -59.28921875 79.94078125 -58.75 79.375 C-55.07721012 75.47206141 -54.71527472 71.14480735 -54 66 C-53.77957031 65.28199219 -53.55914062 64.56398438 -53.33203125 63.82421875 C-53.16767578 62.92123047 -53.16767578 62.92123047 -53 62 C-53.66 61.34 -54.32 60.68 -55 60 C-54.625 56.375 -54.625 56.375 -54 53 C-50.5657338 52.14143345 -48.38317487 52.02408417 -45 53 C-45.27714844 52.45730469 -45.55429688 51.91460937 -45.83984375 51.35546875 C-46.38318359 50.28232422 -46.38318359 50.28232422 -46.9375 49.1875 C-47.47697266 48.12595703 -47.47697266 48.12595703 -48.02734375 47.04296875 C-49 45 -49 45 -50 42 C-51.30594362 41.28115823 -52.64544899 40.62242573 -54 40 C-55.51211456 38.91248283 -57.01113228 37.80663223 -58.5 36.6875 C-63.98547514 32.78671768 -69.73158574 30.3672795 -76 28 C-77.6677658 27.33608776 -79.33480163 26.67032575 -81 26 C-76.16030786 24.15357717 -72.64080478 26.50351322 -68.1640625 28.48046875 C-57.29560674 33.70001108 -47.67748485 39.50118307 -43 51 C-43 51.66 -43 52.32 -43 53 C-41.35 53 -39.7 53 -38 53 C-37.86464844 52.00033203 -37.86464844 52.00033203 -37.7265625 50.98046875 C-36.79356902 47.15318904 -35.14738115 43.80527905 -33.375 40.3125 C-33.01599609 39.60206543 -32.65699219 38.89163086 -32.28710938 38.15966797 C-29.31799867 32.40079761 -25.96408075 27.13152431 -22 22 C-21.04287109 20.72189453 -21.04287109 20.72189453 -20.06640625 19.41796875 C-15.84579377 13.9303498 -11.37025111 9.35366036 -6 5 C-4.83276574 4.02151001 -3.66604064 3.04241209 -2.5 2.0625 C-1.2625 1.0415625 -1.2625 1.0415625 0 0 Z " fill="#7B847A" transform="translate(126,154)"/>
<path d="M0 0 C1.66864846 0.00747213 3.33730577 0.01316046 5.00596619 0.01715088 C9.37088795 0.03233086 13.73526655 0.07154533 18.09997559 0.1159668 C22.56462255 0.1570856 27.02935837 0.17519715 31.49414062 0.1953125 C40.23462262 0.23804827 48.97466538 0.30620519 57.71484375 0.390625 C57.10521802 6.25751821 56.65880862 9.70050462 52.71484375 14.390625 C44.23417612 21.13661061 34.87196135 22.53235578 24.25 22.48828125 C23.23274086 22.48615883 23.23274086 22.48615883 22.19493103 22.48399353 C20.05568797 22.47845245 17.9165545 22.46591153 15.77734375 22.453125 C14.31575673 22.44810236 12.85416806 22.4435408 11.39257812 22.43945312 C7.83329849 22.42850245 4.27408184 22.41127945 0.71484375 22.390625 C0.76705078 24.00904297 0.76705078 24.00904297 0.8203125 25.66015625 C1.0862005 37.89238195 0.6183748 50.68003186 -3.28515625 62.390625 C-7.24515625 62.390625 -11.20515625 62.390625 -15.28515625 62.390625 C-15.28515625 48.530625 -15.28515625 34.670625 -15.28515625 20.390625 C-16.27515625 20.390625 -17.26515625 20.390625 -18.28515625 20.390625 C-18.23875 21.57914063 -18.19234375 22.76765625 -18.14453125 23.9921875 C-17.79909537 37.23209721 -19.53155923 49.4585533 -22.28515625 62.390625 C-26.24515625 62.390625 -30.20515625 62.390625 -34.28515625 62.390625 C-35.30248733 55.02873619 -35.50557812 47.77190306 -35.52539062 40.34716797 C-35.53507298 38.15944032 -35.56616008 35.9726636 -35.59765625 33.78515625 C-35.75306952 13.35395445 -35.75306952 13.35395445 -29.66015625 6.390625 C-28.54640625 5.730625 -27.43265625 5.070625 -26.28515625 4.390625 C-25.72723892 4.04195374 -25.16932159 3.69328247 -24.59449768 3.33404541 C-16.85787177 -0.82949427 -8.51913239 -0.11257755 0 0 Z " fill="#030303" transform="translate(230.28515625,177.609375)"/>
<path d="M0 0 C18.81 0 37.62 0 57 0 C59.73732774 5.47465548 60.81246306 11.2262697 62.14160156 17.16186523 C62.62151821 19.29700953 63.11489878 21.4287338 63.609375 23.56054688 C63.92009676 24.93210482 64.23001846 26.30384431 64.5390625 27.67578125 C64.95986084 29.5307019 64.95986084 29.5307019 65.38916016 31.4230957 C66 35 66 35 66 42 C57.09 42 48.18 42 39 42 C39 43.32 39 44.64 39 46 C40.65 46 42.3 46 44 46 C44.66 47.32 45.32 48.64 46 50 C39.4 50 32.8 50 26 50 C26.33 48.68 26.66 47.36 27 46 C28.98 46 30.96 46 33 46 C33 44.68 33 43.36 33 42 C24.75 42 16.5 42 8 42 C5.6875 31.8125 5.6875 31.8125 4.9375 28.49511719 C3.98480336 24.28687751 3.03132614 20.08038744 2 15.890625 C1.731875 14.79234375 1.46375 13.6940625 1.1875 12.5625 C0.95417969 11.63566406 0.72085938 10.70882812 0.48046875 9.75390625 C0 7 0 7 0 0 Z " fill="#898988" transform="translate(176,113)"/>
<path d="M0 0 C1.27037109 -0.0299707 1.27037109 -0.0299707 2.56640625 -0.06054688 C10.10650121 -0.05477345 16.14500253 1.92105769 21.9375 6.8125 C28.7059009 14.93458109 29.89056095 21.02587114 29.125 31.4375 C28.38186334 33.8570147 27.56480254 35.33778796 26.125 37.4375 C25.465 37.4375 24.805 37.4375 24.125 37.4375 C23.91875 37.994375 23.7125 38.55125 23.5 39.125 C20.31336015 44.48434885 15.98402552 46.89189212 10.125 48.4375 C6.50052156 48.70589112 2.89048729 48.67042011 -0.7421875 48.6328125 C-1.77691193 48.6299826 -2.81163635 48.62715271 -3.87771606 48.62423706 C-7.16859714 48.61308048 -10.45920178 48.58798397 -13.75 48.5625 C-15.98697522 48.55246437 -18.22395473 48.54333953 -20.4609375 48.53515625 C-25.9323853 48.51315595 -31.40367289 48.47972338 -36.875 48.4375 C-35.47472932 45.50387992 -34.10720849 43.55055435 -31.7890625 41.2734375 C-28.09732182 37.06615319 -28.1329002 33.47433693 -28.25 28.0625 C-28.11212806 20.14546902 -27.80885187 13.82037715 -22.30078125 7.68359375 C-15.56349728 1.4005087 -8.9525834 -0.07426728 0 0 Z " fill="#B9C0DC" transform="translate(340.875,78.5625)"/>
<path d="M0 0 C1.08925781 -0.04125 2.17851563 -0.0825 3.30078125 -0.125 C9.99147982 -0.1897226 13.9567041 0.61361217 19.09179688 5.00976562 C22.20398375 8.30324494 21.75494965 11.96825425 21.8125 16.25 C21.84150391 16.95382813 21.87050781 17.65765625 21.90039062 18.3828125 C21.97337752 24.42388167 19.98256023 27.9287769 15.75 32.3125 C13.43378188 33.53494845 11.94705587 33.78393799 9.375 34.0625 C5.49114614 34.09331253 5.49114614 34.09331253 3.5 36.5 C0.5 36.75 0.5 36.75 -2.5 36.5 C-3.16 35.84 -3.82 35.18 -4.5 34.5 C-6.82612666 33.85564353 -6.82612666 33.85564353 -9.4375 33.4375 C-12.25113142 32.93610176 -14.78110509 32.4062983 -17.5 31.5 C-18.49 31.83 -19.48 32.16 -20.5 32.5 C-23.23865287 32.57051114 -25.95027588 32.59357765 -28.6875 32.5625 C-29.43708984 32.55798828 -30.18667969 32.55347656 -30.95898438 32.54882812 C-32.80602383 32.53706354 -34.65302213 32.51912865 -36.5 32.5 C-37.19755617 23.56740569 -35.34100463 16.2688292 -30.75 8.5625 C-22.21861632 0.74206496 -11.02195225 0.10434984 0 0 Z " fill="#D62D2E" transform="translate(119.5,78.5)"/>
<path d="M0 0 C9.76991826 -0.62583106 9.76991826 -0.62583106 14.5625 1.8125 C18.8369399 5.64853581 18.8369399 5.64853581 19.23046875 8.91015625 C19.21628906 9.62042969 19.20210938 10.33070312 19.1875 11.0625 C19.17976563 11.8565625 19.17203125 12.650625 19.1640625 13.46875 C19 16 19 16 18.5234375 18.53125 C17.54009899 23.52982449 17.54009899 23.52982449 19.3515625 28.09375 C20.5919247 29.42384053 21.85590118 30.73223799 23.140625 32.01953125 C29.59226371 38.89133971 29 45.50253505 29 55 C19.1 55 9.2 55 -1 55 C0.65 53.68 2.3 52.36 4 51 C5.24085674 48.30013384 6.21740137 45.82317145 7.11328125 43.015625 C7.37255905 42.24120056 7.63183685 41.46677612 7.89897156 40.66888428 C8.44199862 39.03415995 8.97690705 37.396719 9.50415039 35.75683594 C10.30760584 33.26517767 11.14082586 30.78501722 11.97851562 28.3046875 C12.50441475 26.70892889 13.02856099 25.11259132 13.55078125 23.515625 C13.79758133 22.78200745 14.04438141 22.04838989 14.29866028 21.2925415 C15.86231611 16.35806854 16.37288577 12.1816685 16 7 C13.92744557 4.54363919 12.63630966 4.11135419 9.5 3.5625 C6.02584663 4.17047684 5.18026859 5.21078921 3 8 C1.87841169 11.06131635 1.19731304 14.19397228 0.5 17.375 C0.07267984 19.17212863 -0.35571256 20.96900263 -0.78515625 22.765625 C-1.36839916 25.26614809 -1.94725639 27.76742819 -2.51513672 30.27148438 C-2.96587462 32.22819024 -3.45050063 34.17700254 -3.9375 36.125 C-4.32228516 37.76855469 -4.32228516 37.76855469 -4.71484375 39.4453125 C-6 42 -6 42 -8.73046875 43.359375 C-12.04675802 44.00916167 -15.0000535 44.19999881 -18.375 44.125 C-19.43460938 44.10695312 -20.49421875 44.08890625 -21.5859375 44.0703125 C-22.78089844 44.03550781 -22.78089844 44.03550781 -24 44 C-25.73315864 35.0866127 -27.30370578 26.22281047 -27.5 17.125 C-27.5309375 15.84882812 -27.561875 14.57265625 -27.59375 13.2578125 C-27 10 -27 10 -24.62890625 7.6328125 C-20.50989875 5.07449878 -17.89737826 4 -13 4 C-13 5.32 -13 6.64 -13 8 C-11.55989519 7.74337755 -10.1229313 7.46909179 -8.6875 7.1875 C-7.48673828 6.96126953 -7.48673828 6.96126953 -6.26171875 6.73046875 C-3.70960726 5.90621167 -2.64683212 5.09274359 -1 3 C-0.67 2.01 -0.34 1.02 0 0 Z " fill="#81724A" transform="translate(269,108)"/>
<path d="M0 0 C4.99268902 1.47931526 4.99268902 1.47931526 6.375 4 C6.75060691 10.07713774 5.8345855 14.82045284 3.890625 20.55078125 C3.50532623 21.72171577 3.50532623 21.72171577 3.11224365 22.91630554 C2.57002956 24.55271144 2.02178201 26.1871295 1.46777344 27.81958008 C0.62342638 30.31715475 -0.19317113 32.82267866 -1.0078125 35.33007812 C-1.540026 36.92502757 -2.07382532 38.51944892 -2.609375 40.11328125 C-2.85121521 40.86015701 -3.09305542 41.60703278 -3.34222412 42.37654114 C-4.72587557 46.38251581 -5.78279515 49.00654909 -9.625 51 C-12.82615577 52.14615384 -15.8926499 52.12895378 -19.2734375 52.1328125 C-20.90539062 52.13474609 -20.90539062 52.13474609 -22.5703125 52.13671875 C-23.70210937 52.13285156 -24.83390625 52.12898438 -26 52.125 C-27.1240625 52.12886719 -28.248125 52.13273437 -29.40625 52.13671875 C-30.49679688 52.13542969 -31.58734375 52.13414062 -32.7109375 52.1328125 C-33.7014209 52.13168457 -34.6919043 52.13055664 -35.71240234 52.12939453 C-38.75281895 51.99432154 -41.62929667 51.52039852 -44.625 51 C-48.02142794 50.97235466 -51.40195452 51.06326925 -54.796875 51.16015625 C-57.625 51 -57.625 51 -59.625 49 C-62.19561311 48.35232207 -62.19561311 48.35232207 -64.625 48 C-64.625 46.68 -64.625 45.36 -64.625 44 C-55.715 44 -46.805 44 -37.625 44 C-39.00912968 37.86321003 -39.00912968 37.86321003 -40.43798828 31.73681641 C-41.77456571 25.45271561 -41.65979056 20.13565426 -39.625 14 C-38.965 13.01 -38.305 12.02 -37.625 11 C-37.42583984 12.75376953 -37.42583984 12.75376953 -37.22265625 14.54296875 C-37.04437987 16.09115839 -36.86598839 17.63933478 -36.6875 19.1875 C-36.60048828 19.95642578 -36.51347656 20.72535156 -36.42382812 21.51757812 C-36.07045893 24.56702341 -35.7245117 27.5518542 -35.05859375 30.55078125 C-34.45089203 33.98347478 -34.625 37.51392969 -34.625 41 C-29.015 40.34 -23.405 39.68 -17.625 39 C-17.03332031 36.60363281 -16.44164062 34.20726562 -15.83203125 31.73828125 C-15.24369269 29.40719226 -14.6493638 27.07770777 -14.05444336 24.74829102 C-13.645815 23.13496093 -13.24338255 21.52004783 -12.84741211 19.90356445 C-12.27539257 17.57314107 -11.68094312 15.24941907 -11.08203125 12.92578125 C-10.91097366 12.20787918 -10.73991608 11.48997711 -10.56367493 10.75032043 C-8.98131444 4.76328233 -6.65368444 0 0 0 Z " fill="#F4AC9B" transform="translate(279.625,111)"/>
<path d="M0 0 C0.98178223 -0.00218285 0.98178223 -0.00218285 1.98339844 -0.00440979 C3.36527972 -0.00275204 4.7471797 0.00879582 6.12890625 0.02954102 C8.24298592 0.05849768 10.35455736 0.05015083 12.46875 0.03710938 C13.81251218 0.04334718 15.15626644 0.05173847 16.5 0.0625 C17.72203125 0.07224854 18.9440625 0.08199707 20.203125 0.09204102 C23.25 0.49609375 23.25 0.49609375 25.16015625 1.85522461 C26.66112002 4.1150762 26.46491278 5.84550275 26.25 8.49609375 C27.9 8.49609375 29.55 8.49609375 31.25 8.49609375 C31.745 9.48609375 31.745 9.48609375 32.25 10.49609375 C29.94 10.49609375 27.63 10.49609375 25.25 10.49609375 C25.26571045 11.05594971 25.2814209 11.61580566 25.29760742 12.19262695 C25.35999848 14.73117965 25.39900218 17.26957104 25.4375 19.80859375 C25.46263672 20.68966797 25.48777344 21.57074219 25.51367188 22.47851562 C25.52333984 23.32607422 25.53300781 24.17363281 25.54296875 25.046875 C25.5586792 25.82716064 25.57438965 26.60744629 25.59057617 27.41137695 C25.16014639 30.04610087 24.29947776 30.84086388 22.25 32.49609375 C20.51471923 33.61571761 18.7392098 34.67433722 16.9375 35.68359375 C16.01324219 36.21339844 15.08898437 36.74320313 14.13671875 37.2890625 C10.804503 38.68237057 8.83010243 38.9522458 5.25 38.49609375 C2.109375 37.03515625 2.109375 37.03515625 -1 35.12109375 C-2.03640625 34.49460938 -3.0728125 33.868125 -4.140625 33.22265625 C-6.75 31.49609375 -6.75 31.49609375 -8.75 29.49609375 C-8.97705078 27.61669922 -8.97705078 27.61669922 -8.9453125 25.36328125 C-8.93564453 24.15478516 -8.93564453 24.15478516 -8.92578125 22.921875 C-8.90902344 22.08011719 -8.89226562 21.23835938 -8.875 20.37109375 C-8.86597656 19.52160156 -8.85695312 18.67210938 -8.84765625 17.796875 C-8.82405647 15.69649491 -8.78818483 13.59625931 -8.75 11.49609375 C-13.205 11.99109375 -13.205 11.99109375 -17.75 12.49609375 C-13.75 10.49609375 -13.75 10.49609375 -9.75 10.49609375 C-9.8428125 9.13484375 -9.8428125 9.13484375 -9.9375 7.74609375 C-9.54223481 0.89483044 -6.3779302 -0.00967118 0 0 Z " fill="#B6BEDD" transform="translate(175.75,40.50390625)"/>
<path d="M0 0 C27.39 0 54.78 0 83 0 C83 7.59715801 82.84946342 13.41519118 78.0625 19.4375 C74.91397962 21.82274271 72.99914575 23 69 23 C69.14099121 24.09763672 69.28198242 25.19527344 69.42724609 26.32617188 C69.9605569 30.47864369 70.49351044 34.6311613 71.02636719 38.78369141 C71.25511398 40.56593008 71.48395205 42.34815704 71.71289062 44.13037109 C72.47796854 50.08656979 73.24019769 56.04312609 74 62 C74.09903625 62.77456543 74.19807251 63.54913086 74.30010986 64.34716797 C74.57651353 66.51251537 74.85107129 68.67808828 75.125 70.84375 C75.2796875 72.06255859 75.434375 73.28136719 75.59375 74.53710938 C76.19720414 79.68097571 76.62825632 84.83471937 77 90 C75.02 89.505 75.02 89.505 73 89 C69.74031891 69.03189066 69.74031891 69.03189066 69 60 C67.515 59.505 67.515 59.505 66 59 C66 58.34 66 57.68 66 57 C66.99 57 67.98 57 69 57 C68.505 51.06 68.505 51.06 68 45 C66.02 44.505 66.02 44.505 64 44 C64.99 43.67 65.98 43.34 67 43 C66.7834375 41.91332031 66.7834375 41.91332031 66.5625 40.8046875 C66.376875 39.83789062 66.19125 38.87109375 66 37.875 C65.7215625 36.44800781 65.7215625 36.44800781 65.4375 34.9921875 C65 32 65 32 65 26 C53.45 26 41.9 26 30 26 C29.34 31.61 28.68 37.22 28 43 C29.27875 43.268125 30.5575 43.53625 31.875 43.8125 C37.00062417 44.9451896 41.99289488 46.43201301 47 48 C46.01 48.33 45.02 48.66 44 49 C43.505 49.99 43.505 49.99 43 51 C37.72 49.02 32.44 47.04 27 45 C27 47.31 27 49.62 27 52 C26.71479595 53.67557379 26.40044304 55.34817245 26 57 C28.97 56.505 28.97 56.505 32 56 C29.94766315 58.2477975 28.99332739 59.0022242 26 60 C24.68 69.57 23.36 79.14 22 89 C20.02 89.495 20.02 89.495 18 90 C17.94416154 88.25039485 17.9064141 86.50021406 17.875 84.75 C17.85179687 83.77546875 17.82859375 82.8009375 17.8046875 81.796875 C18.01667668 77.67580535 18.68616517 73.78369449 19.3984375 69.72412109 C20.1257031 65.22180392 20.69941762 60.70996361 21.25390625 56.18359375 C21.36077759 55.31322479 21.46764893 54.44285583 21.57775879 53.54611206 C22.02111214 49.91678837 22.45994834 46.28692608 22.89819336 42.65698242 C23.22254808 39.97803517 23.55058257 37.29955699 23.87890625 34.62109375 C23.97683975 33.79927109 24.07477325 32.97744843 24.17567444 32.13072205 C24.56586276 28.95380426 24.98489554 26.04531339 26 23 C26.589021 22.98018066 27.17804199 22.96036133 27.78491211 22.93994141 C30.50282351 22.84356723 33.22008103 22.73435288 35.9375 22.625 C37.32678711 22.57859375 37.32678711 22.57859375 38.74414062 22.53125 C48.77486893 22.10890354 60.58948352 20.71686052 68.4375 13.875 C70.67418953 9.99350862 70.67418953 9.99350862 73 1 C48.91 1 24.82 1 0 1 C0 0.67 0 0.34 0 0 Z " fill="#776C4B" transform="translate(215,177)"/>
<path d="M0 0 C11.55 0 23.1 0 35 0 C35.66 5.61 36.32 11.22 37 17 C36.01 17.495 36.01 17.495 35 18 C35.99 18.33 36.98 18.66 38 19 C38.495 24.94 38.495 24.94 39 31 C33.95011747 32.2757598 31.26495047 31.62259469 26.5625 29.5 C21.47888048 27.43549841 18.39279346 26.27023606 13 28 C11.33184313 28.70481669 9.66529294 29.41344305 8 30.125 C3.43673521 32.06473641 0.76693493 32.24354824 -4 31 C-3.67 27.04 -3.34 23.08 -3 19 C0.89094322 19.77818864 4.13436217 20.68873768 7.8125 22.0625 C8.78832031 22.42472656 9.76414063 22.78695312 10.76953125 23.16015625 C11.50558594 23.43730469 12.24164063 23.71445313 13 24 C13.33 23.34 13.66 22.68 14 22 C8.72 20.35 3.44 18.7 -2 17 C-1.125 4.5 -1.125 4.5 0 0 Z " fill="#96A1D3" transform="translate(245,203)"/>
<path d="M0 0 C2.31 0 4.62 0 7 0 C9.306127 6.51738073 11.08894306 13.07047785 12.671875 19.796875 C12.91538696 20.81682556 13.15889893 21.83677612 13.40979004 22.88763428 C14.19361752 26.17420807 14.97189652 29.46206682 15.75 32.75 C16.28704178 35.00725502 16.82447814 37.2644162 17.36230469 39.52148438 C18.16330036 42.88344577 18.96396344 46.24548267 19.76300049 49.60791016 C21.27429965 55.96642058 22.7977536 62.32171196 24.34375 68.671875 C24.5122345 69.36464539 24.68071899 70.05741577 24.85430908 70.7711792 C25.60707166 73.8646736 26.36216024 76.95757855 27.12011719 80.04980469 C27.37438477 81.09555664 27.62865234 82.14130859 27.890625 83.21875 C28.10750977 84.10498047 28.32439453 84.99121094 28.54785156 85.90429688 C29 88 29 88 29 90 C26.36 90 23.72 90 21 90 C18.99825915 81.77509847 16.99836404 73.54975102 15.00063801 65.32387352 C14.07232702 61.50167674 13.14344939 57.67961979 12.21313477 53.85791016 C5.10675255 24.66159289 5.10675255 24.66159289 1.98046875 10.9765625 C1.77392166 10.07618256 1.56737457 9.17580261 1.35456848 8.24813843 C0 2.25036557 0 2.25036557 0 0 Z " fill="#B7BEDB" transform="translate(304,178)"/>
<path d="M0 0 C1.4540625 0.0309375 1.4540625 0.0309375 2.9375 0.0625 C3.12819505 5.29980323 2.47028174 9.95024352 1.1875 15 C0.95160156 15.96776367 0.95160156 15.96776367 0.7109375 16.95507812 C0.12974784 19.32677901 -0.46647135 21.69448283 -1.0625 24.0625 C-1.51260697 25.86545231 -1.96269828 27.66840855 -2.41256714 29.47142029 C-3.85872831 35.26490931 -5.31177508 41.05663544 -6.77148438 46.84672546 C-7.54882972 49.93118091 -8.324315 53.01610269 -9.09960938 56.10107422 C-9.49429172 57.66964153 -9.88981109 59.23799844 -10.28613281 60.80615234 C-13.2422807 72.38702317 -13.2422807 72.38702317 -15.58349609 84.10400391 C-16.11890043 86.2931036 -16.9885702 88.08799782 -18.0625 90.0625 C-20.3725 90.0625 -22.6825 90.0625 -25.0625 90.0625 C-23.57300379 80.99131231 -21.44994667 72.10499132 -19.25 63.1875 C-18.70639516 60.96866526 -18.16390602 58.74955957 -17.62145996 56.53044128 C-17.26351955 55.06649213 -16.90520602 53.60263415 -16.54650879 52.13887024 C-15.14887077 46.43243547 -13.78593264 40.71825902 -12.4375 35 C-10.60251036 27.26096052 -8.72210261 19.53346629 -6.8125 11.8125 C-6.42457275 10.22876587 -6.42457275 10.22876587 -6.02880859 8.61303711 C-5.78727051 7.64245361 -5.54573242 6.67187012 -5.296875 5.671875 C-4.97541504 4.3720166 -4.97541504 4.3720166 -4.64746094 3.04589844 C-3.70454895 -0.1511871 -3.51591368 0.07175334 0 0 Z " fill="#B7BEDB" transform="translate(194.0625,177.9375)"/>
<path d="M0 0 C0.99773437 0.02320313 1.99546875 0.04640625 3.0234375 0.0703125 C4.52777344 0.09738281 4.52777344 0.09738281 6.0625 0.125 C6.83335937 0.14820313 7.60421875 0.17140625 8.3984375 0.1953125 C8.3984375 1.8453125 8.3984375 3.4953125 8.3984375 5.1953125 C11.54035174 3.65926554 14.48440488 2.13800091 17.3984375 0.1953125 C20.09765625 0 20.09765625 0 23.0859375 0.0703125 C24.57673828 0.09738281 24.57673828 0.09738281 26.09765625 0.125 C26.85691406 0.14820313 27.61617187 0.17140625 28.3984375 0.1953125 C29.3789405 5.09782748 29.3984375 9.00473491 29.3984375 14.1953125 C12.8984375 14.1953125 -3.6015625 14.1953125 -20.6015625 14.1953125 C-19.6015625 10.1953125 -19.6015625 10.1953125 -16.29296875 8.125 C-14.92359001 7.42636448 -13.54689027 6.74193522 -12.1640625 6.0703125 C-0.01430416 0.00107389 -0.01430416 0.00107389 0 0 Z " fill="#564D32" transform="translate(197.6015625,252.8046875)"/>
<path d="M0 0 C0.185625 0.78375 0.37125 1.5675 0.5625 2.375 C1.83961627 5.39376342 1.83961627 5.39376342 5.625 6.3125 C6.73875 6.539375 7.8525 6.76625 9 7 C9.66666667 11 10.33333333 15 11 19 C11.21527344 20.07378906 11.43054688 21.14757812 11.65234375 22.25390625 C12 25 12 25 10.625 27.3125 C6.79270078 29.77612093 3.5272029 29.73369395 -1 30 C-1.33 27.03 -1.66 24.06 -2 21 C-3.1446875 20.9071875 -3.1446875 20.9071875 -4.3125 20.8125 C-7 20 -7 20 -8.75 17.75 C-11.26939406 12.20733306 -11.11732682 6.983668 -11 1 C-3.375 0 -3.375 0 0 0 Z " fill="#F1AB9B" transform="translate(257,86)"/>
<path d="M0 0 C0 3 0 3 -1.48046875 4.66015625 C-3.71238921 8.0969695 -3.3970064 11.47922006 -3.3125 15.4375 C-3.31572266 16.18837891 -3.31894531 16.93925781 -3.32226562 17.71289062 C-3.28162554 21.91359779 -2.91279757 25.16678416 -1 29 C-4.8415976 31.56780471 -8.8139175 31.22688882 -13.25 31.125 C-13.99507813 31.11597656 -14.74015625 31.10695313 -15.5078125 31.09765625 C-17.33868059 31.07418358 -19.16938238 31.03831525 -21 31 C-21.69755617 22.06740569 -19.84100463 14.7688292 -15.25 7.0625 C-10.95959821 3.1296317 -5.79534459 0.72441807 0 0 Z " fill="#99A1D5" transform="translate(104,80)"/>
<path d="M0 0 C1.04285156 -0.01417969 2.08570313 -0.02835937 3.16015625 -0.04296875 C5.9375 0.1875 5.9375 0.1875 8.9375 2.1875 C8.9375 2.8475 8.9375 3.5075 8.9375 4.1875 C9.576875 4.496875 10.21625 4.80625 10.875 5.125 C12.9375 6.1875 12.9375 6.1875 13.9375 7.1875 C14.51353731 13.18900497 13.99525332 19.49692292 11.9375 25.1875 C11.2775 25.5175 10.6175 25.8475 9.9375 26.1875 C9.6075 23.8775 9.2775 21.5675 8.9375 19.1875 C6.6275 18.5275 4.3175 17.8675 1.9375 17.1875 C1.6075 15.5375 1.2775 13.8875 0.9375 12.1875 C-0.0525 12.5175 -1.0425 12.8475 -2.0625 13.1875 C-3.45689664 13.25415376 -4.85419875 13.27288199 -6.25 13.25 C-8.1371875 13.2190625 -8.1371875 13.2190625 -10.0625 13.1875 C-10.0625 14.1775 -10.0625 15.1675 -10.0625 16.1875 C-11.875 15.625 -11.875 15.625 -14.0625 14.1875 C-16.13188056 10.19655178 -17.0625 7.71120909 -17.0625 3.1875 C-14.73086622 2.51491333 -12.3972961 1.84902556 -10.0625 1.1875 C-9.45019531 1.00445312 -8.83789062 0.82140625 -8.20703125 0.6328125 C-5.44451926 0.05917613 -2.82014225 0.017473 0 0 Z " fill="#073058" transform="translate(256.0625,73.8125)"/>
<path d="M0 0 C1.2375 -0.020625 2.475 -0.04125 3.75 -0.0625 C4.44609375 -0.07410156 5.1421875 -0.08570313 5.859375 -0.09765625 C8 0 8 0 9.74023438 0.48632812 C12.6118006 1.13906963 15.35359788 1.21922257 18.296875 1.31640625 C19.50214844 1.35830078 20.70742188 1.40019531 21.94921875 1.44335938 C23.83060547 1.50233398 23.83060547 1.50233398 25.75 1.5625 C27.01972656 1.60568359 28.28945313 1.64886719 29.59765625 1.69335938 C32.73166365 1.79939722 35.86574933 1.90146058 39 2 C39 2.33 39 2.66 39 3 C27.45 3 15.9 3 4 3 C3.34 8.61 2.68 14.22 2 20 C3.27875 20.268125 4.5575 20.53625 5.875 20.8125 C11.00062417 21.9451896 15.99289488 23.43201301 21 25 C20.01 25.33 19.02 25.66 18 26 C17.67 26.66 17.34 27.32 17 28 C11.72 26.02 6.44 24.04 1 22 C1 24.31 1 26.62 1 29 C0.71479595 30.67557379 0.40044304 32.34817245 0 34 C2.97 33.505 2.97 33.505 6 33 C3.94766315 35.2477975 2.99332739 36.0022242 0 37 C-1.32 46.57 -2.64 56.14 -4 66 C-5.98 66.495 -5.98 66.495 -8 67 C-8.05583846 65.25039485 -8.0935859 63.50021406 -8.125 61.75 C-8.15980469 60.28820312 -8.15980469 60.28820312 -8.1953125 58.796875 C-7.98332332 54.67580535 -7.31383483 50.78369449 -6.6015625 46.72412109 C-5.8742969 42.22180392 -5.30058238 37.70996361 -4.74609375 33.18359375 C-4.58578674 31.87804031 -4.58578674 31.87804031 -4.42224121 30.54611206 C-3.97888786 26.91678837 -3.54005166 23.28692608 -3.10180664 19.65698242 C-2.77745192 16.97803517 -2.44941743 14.29955699 -2.12109375 11.62109375 C-2.02316025 10.79927109 -1.92522675 9.97744843 -1.82432556 9.13072205 C-1.43413724 5.95380426 -1.01510446 3.04531339 0 0 Z " fill="#817656" transform="translate(241,200)"/>
<path d="M0 0 C0.495 5.94 0.495 5.94 1 12 C-4.04988253 13.2757598 -6.73504953 12.62259469 -11.4375 10.5 C-16.52111952 8.43549841 -19.60720654 7.27023606 -25 9 C-26.66815687 9.70481669 -28.33470706 10.41344305 -30 11.125 C-34.56326479 13.06473641 -37.23306507 13.24354824 -42 12 C-41.67 8.04 -41.34 4.08 -41 0 C-37.03165052 0.7936699 -34.35822032 1.66744723 -30.75 3.25 C-25.79324501 5.07896307 -23.14645045 5.1185537 -18.328125 3.08203125 C-17.55984375 2.72496094 -16.7915625 2.36789063 -16 2 C-14.09242535 1.20693374 -12.17529852 0.43651319 -10.25 -0.3125 C-9.36828125 -0.67988281 -8.4865625 -1.04726562 -7.578125 -1.42578125 C-5 -2 -5 -2 0 0 Z " fill="#82775A" transform="translate(283,222)"/>
<path d="M0 0 C3.28798303 0.9070298 4.04286888 2.07502055 5.75 5.0625 C7.25131016 9.56643047 7.39104629 14.10520435 7.5 18.8125 C7.53061523 19.5660376 7.56123047 20.3195752 7.59277344 21.09594727 C7.59375 23.26953125 7.59375 23.26953125 7 27 C3.6383428 29.82672013 0.36482418 30.70901172 -4 31 C-4.66 30.34 -5.32 29.68 -6 29 C-5.79551949 26.590964 -5.45564105 24.36656555 -5 22 C-4.85175781 21.16758789 -4.70351563 20.33517578 -4.55078125 19.47753906 C-4.05033441 16.69005014 -3.5274514 13.90749725 -3 11.125 C-2.82210938 10.16335937 -2.64421875 9.20171875 -2.4609375 8.2109375 C-2.28820312 7.29828125 -2.11546875 6.385625 -1.9375 5.4453125 C-1.70353516 4.20031982 -1.70353516 4.20031982 -1.46484375 2.93017578 C-1 1 -1 1 0 0 Z " fill="#99A4D8" transform="translate(425,128)"/>
<path d="M0 0 C1.2375 0.00386719 2.475 0.00773437 3.75 0.01171875 C7 0.3125 7 0.3125 10 2.3125 C10.4042359 5.39479871 10.62486381 7.35291779 10 10.3125 C7.625 13.1875 7.625 13.1875 5 15.3125 C4.34 15.9725 3.68 16.6325 3 17.3125 C-0.52213404 17.38023335 -2.97616188 17.12443262 -5.79296875 14.890625 C-8.50793808 11.97574106 -9.87457371 10.03718521 -10.5625 6.0625 C-9.2976332 -0.12129326 -5.78346959 -0.07831782 0 0 Z " fill="#999ED0" transform="translate(120,86.6875)"/>
<path d="M0 0 C0.33 0 0.66 0 1 0 C1.08411822 5.20101181 0.84097877 10.08134436 0.08203125 15.2421875 C-0.01550446 15.91635208 -0.11304016 16.59051666 -0.21353149 17.28511047 C-0.53280211 19.48256605 -0.86006776 21.6787471 -1.1875 23.875 C-1.4122004 25.41049037 -1.6363949 26.94605485 -1.86010742 28.48168945 C-2.44690853 32.50024378 -3.04052628 36.51776172 -3.63562012 40.53509521 C-4.24301028 44.64388109 -4.84387798 48.75362016 -5.4453125 52.86328125 C-6.6238647 60.90979564 -7.80962757 68.9552258 -9 77 C-7.25383324 76.52500792 -5.50775711 76.04968261 -3.76171875 75.57421875 C-2.30318481 75.17722778 -2.30318481 75.17722778 -0.81518555 74.7722168 C2.46400532 73.87272146 5.73329705 72.94371419 9 72 C6.55392477 74.86469884 4.14518652 75.92891276 0.625 77.1875 C-0.31085938 77.53167969 -1.24671875 77.87585938 -2.2109375 78.23046875 C-4.97030329 78.99180637 -7.15971618 79.05873776 -10 79 C-10.04390869 79.66249756 -10.08781738 80.32499512 -10.13305664 81.00756836 C-10.76160976 89.48624218 -11.86548382 97.86003116 -13.10180664 106.2668457 C-13.44136004 108.58889705 -13.76866536 110.91248496 -14.09570312 113.23632812 C-14.31176021 114.72146198 -14.52853035 116.20649231 -14.74609375 117.69140625 C-14.84200302 118.38198624 -14.93791229 119.07256622 -15.03672791 119.78407288 C-15.54937448 123.18535706 -16.0544981 125.08174715 -18 128 C-17.98839844 126.94039063 -17.97679687 125.88078125 -17.96484375 124.7890625 C-17.95546524 123.40104342 -17.94636511 122.01302245 -17.9375 120.625 C-17.92912109 119.92632812 -17.92074219 119.22765625 -17.91210938 118.5078125 C-17.8164558 114.62704624 -17.8164558 114.62704624 -19 111 C-18.34 111 -17.68 111 -17 111 C-16.51937876 108.31275296 -16.04046504 105.62521967 -15.5625 102.9375 C-15.42779297 102.18533203 -15.29308594 101.43316406 -15.15429688 100.65820312 C-12.14253539 88.65012545 -12.14253539 88.65012545 -14.1171875 77.16015625 C-15.62249569 75.30186575 -15.62249569 75.30186575 -18 73 C-15.53199953 74.15173355 -13.95216435 75.04783565 -12 77 C-11.23359983 72.67956201 -10.48548745 68.35646573 -9.75390625 64.0300293 C-9.50268527 62.55977145 -9.24655231 61.09034389 -8.98535156 59.62182617 C-8.60997746 57.50640683 -8.25257848 55.38859544 -7.8984375 53.26953125 C-7.67849121 51.99698486 -7.45854492 50.72443848 -7.23193359 49.41333008 C-6.98998149 45.85255913 -7.40935282 44.13682244 -9 41 C-9.66666667 39.33333333 -10.33333333 37.66666667 -11 36 C-9.68 37.32 -8.36 38.64 -7 40 C-5.49106941 35.0665262 -4.44896664 30.20709162 -3.7109375 25.09765625 C-3.60278717 24.3750914 -3.49463684 23.65252655 -3.38320923 22.9080658 C-3.04277657 20.6268334 -2.70878252 18.34471388 -2.375 16.0625 C-2.14365625 14.50449382 -1.9118894 12.94655039 -1.6796875 11.38867188 C-1.11490076 7.59315551 -0.55588163 3.79683037 0 0 Z " fill="#ADB6D9" transform="translate(413,136)"/>
<path d="M0 0 C1.32 0 2.64 0 4 0 C5.14801223 4.73020732 6.28704017 9.46245642 7.41796875 14.19677734 C7.80355508 15.80543575 8.19154589 17.41351986 8.58203125 19.02099609 C9.14443232 21.33803113 9.69801722 23.65702641 10.25 25.9765625 C10.42499023 26.68930328 10.59998047 27.40204407 10.78027344 28.13638306 C11.73046122 32.17199258 12.18138968 35.85637953 12 40 C10.68 40 9.36 40 8 40 C6.85523382 34.9475014 5.71606119 29.89378638 4.58203125 24.83886719 C4.19554284 23.11977195 3.8075339 21.40101782 3.41796875 19.68261719 C2.85796465 17.21117051 2.30345791 14.73854476 1.75 12.265625 C1.57500977 11.49881409 1.40001953 10.73200317 1.21972656 9.94195557 C0.45747083 6.51324262 0 3.53252103 0 0 Z " fill="#3A4B71" transform="translate(230,114)"/>
<path d="M0 0 C0 3.3 0 6.6 0 10 C-7.625 14 -7.625 14 -11 14 C-11 10.37 -11 6.74 -11 3 C-4.5 0 -4.5 0 0 0 Z " fill="#B0B8DA" transform="translate(350,219)"/>
<path d="M0 0 C0.66 0.33 1.32 0.66 2 1 C1.14277344 1.78503906 0.28554687 2.57007813 -0.59765625 3.37890625 C-3.54927605 6.08707569 -6.48988303 8.80683873 -9.42333984 11.53466797 C-10.67112557 12.69434742 -11.92276936 13.84987555 -13.17578125 15.00390625 C-23.84138513 25.17913754 -31.57976625 39.05292704 -36 53 C-33.03 53 -30.06 53 -27 53 C-27 53.33 -27 53.66 -27 54 C-30.3 54 -33.6 54 -37 54 C-38.24608644 49.01565426 -36.77518853 46.74192439 -34.5 42.4375 C-34.13124756 41.72440674 -33.76249512 41.01131348 -33.38256836 40.27661133 C-26.32215893 26.81253947 -17.90922357 14.6122664 -6 5 C-4.83256761 4.02174642 -3.66582596 3.04266749 -2.5 2.0625 C-1.675 1.381875 -0.85 0.70125 0 0 Z " fill="#627D63" transform="translate(126,154)"/>
<path d="M0 0 C3.89094322 0.77818864 7.13436217 1.68873768 10.8125 3.0625 C11.78832031 3.42472656 12.76414063 3.78695312 13.76953125 4.16015625 C14.87361328 4.57587891 14.87361328 4.57587891 16 5 C13.42033404 7.57966596 10.90692108 8.33609844 7.5 9.625 C5.75203125 10.29402344 5.75203125 10.29402344 3.96875 10.9765625 C1 12 1 12 -1 12 C-0.67 8.04 -0.34 4.08 0 0 Z " fill="#96A0D0" transform="translate(242,222)"/>
<path d="M0 0 C1.1577506 3.47325181 1.06866652 6.36067448 1 10 C-4.76044212 9.39363767 -9.72014369 7.24341721 -15 5 C-12.68994131 2.68994131 -11.16916343 2.27825897 -8.0625 1.375 C-7.18722656 1.11460937 -6.31195313 0.85421875 -5.41015625 0.5859375 C-3 0 -3 0 0 0 Z " fill="#959FCD" transform="translate(282,223)"/>
<path d="M0 0 C-3.14103007 1.00961681 -4.85654578 0.8078681 -8 0 C-18.79806322 -0.56659868 -28.57942325 -0.09303338 -39 3 C-37.68 3.66 -36.36 4.32 -35 5 C-37.31 5 -39.62 5 -42 5 C-42 4.01 -42 3.02 -42 2 C-40.46163292 1.34634601 -38.91911234 0.70246397 -37.375 0.0625 C-36.51648438 -0.29714844 -35.65796875 -0.65679687 -34.7734375 -1.02734375 C-24.11584469 -4.76500658 -10.33383471 -4.50930969 0 0 Z " fill="#5F7C60" transform="translate(143,203)"/>
<path d="M0 0 C1.32 0 2.64 0 4 0 C4 1.32 4 2.64 4 4 C5.98 4 7.96 4 10 4 C10.66 5.32 11.32 6.64 12 8 C5.4 8 -1.2 8 -8 8 C-7.67 7.01 -7.34 6.02 -7 5 C-4.69 5 -2.38 5 0 5 C0 3.35 0 1.7 0 0 Z " fill="#38476D" transform="translate(210,155)"/>
<path d="M0 0 C12.49558637 1.06345416 25.63051287 8.80318426 34 18 C35.70241673 20.54190046 37.1826708 23.03959503 38 26 C37.505 27.485 37.505 27.485 37 29 C35.68 28.67 34.36 28.34 33 28 C33.99 28 34.98 28 36 28 C35.72285156 27.45730469 35.44570312 26.91460937 35.16015625 26.35546875 C34.61681641 25.28232422 34.61681641 25.28232422 34.0625 24.1875 C33.52302734 23.12595703 33.52302734 23.12595703 32.97265625 22.04296875 C32 20 32 20 31 17 C29.69405638 16.28115823 28.35455101 15.62242573 27 15 C25.48788544 13.91248283 23.98886772 12.80663223 22.5 11.6875 C17.01452486 7.78671768 11.26841426 5.3672795 5 3 C3.3322342 2.33608776 1.66519837 1.67032575 0 1 C0 0.67 0 0.34 0 0 Z " fill="#617D62" transform="translate(45,179)"/>
<path d="M0 0 C0.33 0 0.66 0 1 0 C1.39536615 3.39378358 1.76266433 6.79004398 2.125 10.1875 C2.23714844 11.14720703 2.34929687 12.10691406 2.46484375 13.09570312 C2.56152344 14.02705078 2.65820312 14.95839844 2.7578125 15.91796875 C2.8520752 16.77156982 2.94633789 17.6251709 3.04345703 18.50463867 C2.99307604 21.39758329 2.21220716 23.39395869 1 26 C-2.1782646 20.29264825 -3.62161333 13.44346954 -2.45703125 6.9921875 C-1.73374889 4.60841183 -0.94766604 2.30293037 0 0 Z " fill="#E0A498" transform="translate(241,122)"/>
<path d="M0 0 C0.94875 0.185625 1.8975 0.37125 2.875 0.5625 C3.57625 0.706875 4.2775 0.85125 5 1 C5 1.33 5 1.66 5 2 C-9.52 2 -24.04 2 -39 2 C-39 1.67 -39 1.34 -39 1 C-34.41069967 0.68801312 -29.82091854 0.38516848 -25.23046875 0.09057617 C-23.67073543 -0.01078709 -22.11115887 -0.11459467 -20.55175781 -0.22094727 C-18.30310794 -0.37387269 -16.05403062 -0.51783771 -13.8046875 -0.66015625 C-12.76838699 -0.73351952 -12.76838699 -0.73351952 -11.71115112 -0.80836487 C-7.63734662 -1.05589763 -3.99359461 -0.82544913 0 0 Z " fill="#979FC5" transform="translate(241,162)"/>
<path d="M0 0 C0.66 0.33 1.32 0.66 2 1 C1.57476184 2.60746056 1.13429874 4.21089836 0.6875 5.8125 C0.44386719 6.70582031 0.20023437 7.59914062 -0.05078125 8.51953125 C-1.03191748 11.08340575 -1.80296695 12.37419554 -4 14 C-6.6875 13.6875 -6.6875 13.6875 -9 13 C-7.47987323 7.59510481 -3.72614782 4.01507372 0 0 Z " fill="#9CA7D9" transform="translate(424,183)"/>
<path d="M0 0 C1.32 0 2.64 0 4 0 C4.61240935 7.2264303 4.61240935 7.2264303 1.625 11 C-1 13 -1 13 -3 13 C-2.88490339 11.58249437 -2.75746342 10.16598831 -2.625 8.75 C-2.55539063 7.96109375 -2.48578125 7.1721875 -2.4140625 6.359375 C-1.98492887 3.914123 -1.21399362 2.15163097 0 0 Z " fill="#99A4D8" transform="translate(74,216)"/>
<path d="M0 0 C4.55555556 0.55555556 4.55555556 0.55555556 6 2 C6.1875 4.4375 6.1875 4.4375 6 7 C5.34 7.66 4.68 8.32 4 9 C-0.55555556 8.44444444 -0.55555556 8.44444444 -2 7 C-2.1875 4.5625 -2.1875 4.5625 -2 2 C-1.34 1.34 -0.68 0.68 0 0 Z " fill="#9AA4D6" transform="translate(339,99)"/>
<path d="M0 0 C4.55555556 0.55555556 4.55555556 0.55555556 6 2 C6.1875 4.4375 6.1875 4.4375 6 7 C5.34 7.66 4.68 8.32 4 9 C-0.55555556 8.44444444 -0.55555556 8.44444444 -2 7 C-2.1875 4.5625 -2.1875 4.5625 -2 2 C-1.34 1.34 -0.68 0.68 0 0 Z " fill="#9AA4D6" transform="translate(325,99)"/>
<path d="M0 0 C1.9375 0.8125 1.9375 0.8125 3.9375 2.8125 C3.57068342 5.74703261 3.07312754 6.67687246 0.9375 8.8125 C-1.6875 8.4375 -1.6875 8.4375 -4.0625 7.8125 C-4.75 5.5 -4.75 5.5 -5.0625 2.8125 C-3.54188901 0.41153528 -2.87462184 -0.26132926 0 0 Z " fill="#9AA4D6" transform="translate(356.0625,99.1875)"/>
<path d="M0 0 C2.625 0.375 2.625 0.375 5 1 C5.625 3.875 5.625 3.875 6 7 C5.34 7.66 4.68 8.32 4 9 C-0.55555556 8.44444444 -0.55555556 8.44444444 -2 7 C-2.1875 4.5625 -2.1875 4.5625 -2 2 C-1.34 1.34 -0.68 0.68 0 0 Z " fill="#959FCE" transform="translate(204,131)"/>
<path d="M0 0 C3.3 0 6.6 0 10 0 C10 1.65 10 3.3 10 5 C6.7 5 3.4 5 0 5 C0 3.35 0 1.7 0 0 Z " fill="#EAADA5" transform="translate(216,241)"/>
<path d="M0 0 C0.99 0 1.98 0 3 0 C3 8.91 3 17.82 3 27 C2.67 27 2.34 27 2 27 C1.93941406 26.02417969 1.87882813 25.04835937 1.81640625 24.04296875 C1.73261719 22.77066406 1.64882812 21.49835938 1.5625 20.1875 C1.48128906 18.92292969 1.40007812 17.65835938 1.31640625 16.35546875 C1.12815453 13.00818107 1.12815453 13.00818107 0 10 C-0.06802967 8.27204648 -0.08495645 6.54164635 -0.0625 4.8125 C-0.05347656 3.91144531 -0.04445312 3.01039063 -0.03515625 2.08203125 C-0.02355469 1.39496094 -0.01195312 0.70789063 0 0 Z " fill="#808AB5" transform="translate(212,198)"/>
<path d="M0 0 C3.3 0 6.6 0 10 0 C9.67 1.65 9.34 3.3 9 5 C6.03 5 3.06 5 0 5 C0 3.35 0 1.7 0 0 Z " fill="#EAADA5" transform="translate(197,241)"/>
<path d="M0 0 C2 2 2 2 2.265625 3.8125 C2.22332232 9.73487559 1.34732281 15.23778907 0 21 C-0.99 21 -1.98 21 -3 21 C-4 19 -4 19 -3.44140625 17.15234375 C-3.15136719 16.42144531 -2.86132812 15.69054687 -2.5625 14.9375 C-1.05129881 10.71844509 -0.76031966 7.2018625 -0.9921875 2.75 C-0.99605469 1.88375 -0.99605469 1.88375 -1 1 C-0.67 0.67 -0.34 0.34 0 0 Z " fill="#8E7D60" transform="translate(286,113)"/>
<path d="M0 0 C-0.33 1.32 -0.66 2.64 -1 4 C-1 3.01 -1 2.02 -1 1 C-1.88042969 1.30035156 -2.76085937 1.60070312 -3.66796875 1.91015625 C-5.41013672 2.48056641 -5.41013672 2.48056641 -7.1875 3.0625 C-8.91033203 3.63677734 -8.91033203 3.63677734 -10.66796875 4.22265625 C-13.97454508 4.99406151 -15.79082314 4.96093996 -19 4 C-16.20624765 2.13749843 -13.73968241 0.96173946 -10.625 -0.25 C-9.68914062 -0.62640625 -8.75328125 -1.0028125 -7.7890625 -1.390625 C-4.46484759 -2.11692406 -2.97616507 -1.53678342 0 0 Z " fill="#867F70" transform="translate(283,222)"/>
<path d="M0 0 C5.28 0 10.56 0 16 0 C16 0.99 16 1.98 16 3 C10.72 3 5.44 3 0 3 C0 2.01 0 1.02 0 0 Z " fill="#9FA9D7" transform="translate(176,59)"/>
<path d="M0 0 C1.67542976 0.28604898 3.34385343 0.61781233 5 1 C5 2.65 5 4.3 5 6 C0.25 7.125 0.25 7.125 -2 6 C-1.125 1.125 -1.125 1.125 0 0 Z " fill="#BAC2E0" transform="translate(143,55)"/>
<path d="M0 0 C-0.33 2.64 -0.66 5.28 -1 8 C-1.33 8 -1.66 8 -2 8 C-2 6.35 -2 4.7 -2 3 C-3.98 3.66 -5.96 4.32 -8 5 C-8.33 6.98 -8.66 8.96 -9 11 C-9.33 11 -9.66 11 -10 11 C-10 8.36 -10 5.72 -10 3 C-6.27034861 0.96564469 -4.33094958 0 0 0 Z " fill="#B6BDDB" transform="translate(350,219)"/>
<path d="M0 0 C-1.53218685 3.63061667 -3.7183144 5.9863773 -6.5 8.75 C-7.69109375 9.94882813 -7.69109375 9.94882813 -8.90625 11.171875 C-11 13 -11 13 -13 13 C-11.46781315 9.36938333 -9.2816856 7.0136227 -6.5 4.25 C-5.7059375 3.45078125 -4.911875 2.6515625 -4.09375 1.828125 C-2 0 -2 0 0 0 Z " fill="#B0B8DA" transform="translate(370,134)"/>
<path d="M0 0 C0.66 0.33 1.32 0.66 2 1 C-5.29840547 9.44646925 -5.29840547 9.44646925 -9 13 C-7.36088911 7.1265193 -5.109884 3.40658933 0 0 Z " fill="#9FABE2" transform="translate(94,83)"/>
<path d="M0 0 C1.65 0.33 3.3 0.66 5 1 C4.67 2.65 4.34 4.3 4 6 C2.35 5.67 0.7 5.34 -1 5 C-0.67 3.35 -0.34 1.7 0 0 Z " fill="#B4BCDB" transform="translate(218,67)"/>
<path d="M0 0 C1.65 0 3.3 0 5 0 C5.625 1.875 5.625 1.875 6 4 C5.34 4.66 4.68 5.32 4 6 C1.875 5.625 1.875 5.625 0 5 C0 3.35 0 1.7 0 0 Z " fill="#B4BCDB" transform="translate(333,188)"/>
<path d="M0 0 C1.67542976 0.28604898 3.34385343 0.61781233 5 1 C5 2.32 5 3.64 5 5 C3.35 5.33 1.7 5.66 0 6 C-0.38218767 4.34385343 -0.71395102 2.67542976 -1 1 C-0.67 0.67 -0.34 0.34 0 0 Z " fill="#B5BCDB" transform="translate(359,169)"/>
<path d="M0 0 C1.65 0 3.3 0 5 0 C5 1.65 5 3.3 5 5 C3.125 5.625 3.125 5.625 1 6 C0.34 5.34 -0.32 4.68 -1 4 C-0.625 1.875 -0.625 1.875 0 0 Z " fill="#B4BCDB" transform="translate(154,97)"/>
<path d="M0 0 C0 1.98 0 3.96 0 6 C-1.65 6.33 -3.3 6.66 -5 7 C-5 5.02 -5 3.04 -5 1 C-2 0 -2 0 0 0 Z " fill="#98A3D6" transform="translate(347,222)"/>
<path d="M0 0 C0.33 0 0.66 0 1 0 C1 1.98 1 3.96 1 6 C-3.68965706 7.11658501 -6.53763531 6.80619523 -11 5 C-8 3 -8 3 -5.95703125 3.2421875 C-3.97135417 3.828125 -1.98567708 4.4140625 0 5 C0 3.35 0 1.7 0 0 Z " fill="#857D6D" transform="translate(283,228)"/>
<path d="M0 0 C1.20076172 0.31324219 1.20076172 0.31324219 2.42578125 0.6328125 C3.23402344 0.83648437 4.04226563 1.04015625 4.875 1.25 C5.48988281 1.41757813 6.10476563 1.58515625 6.73828125 1.7578125 C5.74828125 2.0878125 4.75828125 2.4178125 3.73828125 2.7578125 C3.40828125 3.4178125 3.07828125 4.0778125 2.73828125 4.7578125 C0.09828125 3.7678125 -2.54171875 2.7778125 -5.26171875 1.7578125 C-2.26171875 -0.2421875 -2.26171875 -0.2421875 0 0 Z " fill="#857D6B" transform="translate(255.26171875,223.2421875)"/>
</svg>
